<svg xmlns="http://www.w3.org/2000/svg" xmlns:xlink="http://www.w3.org/1999/xlink" viewBox="0 0 31.67 37.25"><defs><style>.cls-1{fill:url(#linear-gradient);}.cls-2{fill:url(#linear-gradient-2);}</style><linearGradient id="linear-gradient" x1="8.83" y1="23.96" x2="18.64" y2="40.95" gradientUnits="userSpaceOnUse"><stop offset="0" stop-opacity="0.5"/><stop offset="0.3" stop-color="#0a0a0a" stop-opacity="0.7"/><stop offset="0.6" stop-color="#141414" stop-opacity="0.9"/><stop offset="1" stop-color="#1e1e1e"/></linearGradient><linearGradient id="linear-gradient-2" x1="7.09" y1="5.05" x2="21.57" y2="30.13" xlink:href="#linear-gradient"/></defs><title>Asset 29</title><g id="Layer_2" data-name="Layer 2"><g id="Layer_1-2" data-name="Layer 1"><g id="svg_1" data-name="svg 1"><g id="g2005"><path id="path2007" class="cls-1" d="M25,37.25c-3.92,0-6-4.17-7.07-8.35a42,42,0,0,1-1.18-8.36l-2,0s-.37,16.72-8.21,16.73Z"/></g><path id="path2009" class="cls-2" d="M31.67,20.53C31.63,12.37,19.42,6.46,15.83,0,12.25,6.46,0,12.37,0,20.53c0,3.85,3.55,7,7.92,7s7.91-3.13,7.91-7c0,3.85,3.55,7,7.92,7s7.92-3.13,7.92-7Z"/></g></g></g></svg>